<svg xmlns="http://www.w3.org/2000/svg" xmlns:xlink="http://www.w3.org/1999/xlink" id="body_7" preserveAspectRatio="xMinYMin meet" viewBox="0 0 816 1056"><defs><clipPath id="1"><path id="" clip-rule="evenodd" transform="matrix(1 0 0 1 0 0)" d="M0 792L0 0L0 0L612 0L612 0L612 792L612 792L0 792z" /></clipPath></defs><g transform="matrix(1.333333 0 0 1.333333 0 0)"><g clip-path="url(#1)"><path id="22" transform="matrix(1 0 0 -1 0 792)" d="M72 743.113L540 743.113" stroke="#000000" stroke-width="0.3985" fill="none" /><path id="23" transform="matrix(1 0 0 -1 0 792)" d="M116.472 718.207L495.528 718.207" stroke="#000000" stroke-width="0.3985" fill="none" /><path id="24" transform="matrix(1 0 0 -1 0 792)" d="M116.671 694.695L116.671 718.007" stroke="#000000" stroke-width="0.3985" fill="none" /><path id="36" transform="matrix(1 0 0 -1 0 792)" d="M200.928 694.695L200.928 718.007" stroke="#000000" stroke-width="0.3985" fill="none" /><path id="56" transform="matrix(1 0 0 -1 0 792)" d="M330.648 694.695L330.648 718.007" stroke="#000000" stroke-width="0.3985" fill="none" /><path id="80" transform="matrix(1 0 0 -1 0 792)" d="M495.329 694.695L495.329 718.007" stroke="#000000" stroke-width="0.3985" fill="none" /><path id="81" transform="matrix(1 0 0 -1 0 792)" d="M116.472 694.496L495.528 694.496" stroke="#000000" stroke-width="0.3985" fill="none" /><path id="82" transform="matrix(1 0 0 -1 0 792)" d="M116.671 670.984L116.671 694.296" stroke="#000000" stroke-width="0.3985" fill="none" /><path id="93" transform="matrix(1 0 0 -1 0 792)" d="M200.928 670.984L200.928 694.296" stroke="#000000" stroke-width="0.3985" fill="none" /><path id="103" transform="matrix(1 0 0 -1 0 792)" d="M330.648 670.984L330.648 694.296" stroke="#000000" stroke-width="0.3985" fill="none" /><path id="122" transform="matrix(1 0 0 -1 0 792)" d="M495.329 670.984L495.329 694.296" stroke="#000000" stroke-width="0.3985" fill="none" /><path id="123" transform="matrix(1 0 0 -1 0 792)" d="M330.847 670.785L495.528 670.785" stroke="#000000" stroke-width="0.3985" fill="none" /><path id="124" transform="matrix(1 0 0 -1 0 792)" d="M116.671 647.671L116.671 670.984" stroke="#000000" stroke-width="0.3985" fill="none" /><path id="125" transform="matrix(1 0 0 -1 0 792)" d="M200.928 647.671L200.928 670.984" stroke="#000000" stroke-width="0.3985" fill="none" /><path id="126" transform="matrix(1 0 0 -1 0 792)" d="M330.648 647.671L330.648 670.984" stroke="#000000" stroke-width="0.3985" fill="none" /><path id="144" transform="matrix(1 0 0 -1 0 792)" d="M495.329 647.671L495.329 670.984" stroke="#000000" stroke-width="0.3985" fill="none" /><path id="145" transform="matrix(1 0 0 -1 0 792)" d="M201.127 647.472L495.528 647.472" stroke="#000000" stroke-width="0.3985" fill="none" /><path id="146" transform="matrix(1 0 0 -1 0 792)" d="M116.671 624.359L116.671 647.671" stroke="#000000" stroke-width="0.3985" fill="none" /><path id="147" transform="matrix(1 0 0 -1 0 792)" d="M200.928 624.359L200.928 647.671" stroke="#000000" stroke-width="0.3985" fill="none" /><path id="155" transform="matrix(1 0 0 -1 0 792)" d="M330.648 624.359L330.648 647.671" stroke="#000000" stroke-width="0.3985" fill="none" /><path id="177" transform="matrix(1 0 0 -1 0 792)" d="M495.329 624.359L495.329 647.671" stroke="#000000" stroke-width="0.3985" fill="none" /><path id="178" transform="matrix(1 0 0 -1 0 792)" d="M330.847 624.159L495.528 624.159" stroke="#000000" stroke-width="0.3985" fill="none" /><path id="179" transform="matrix(1 0 0 -1 0 792)" d="M116.671 601.046L116.671 624.359" stroke="#000000" stroke-width="0.3985" fill="none" /><path id="180" transform="matrix(1 0 0 -1 0 792)" d="M200.928 601.046L200.928 624.359" stroke="#000000" stroke-width="0.3985" fill="none" /><path id="181" transform="matrix(1 0 0 -1 0 792)" d="M330.648 601.046L330.648 624.359" stroke="#000000" stroke-width="0.3985" fill="none" /><path id="201" transform="matrix(1 0 0 -1 0 792)" d="M495.329 601.046L495.329 624.359" stroke="#000000" stroke-width="0.3985" fill="none" /><path id="202" transform="matrix(1 0 0 -1 0 792)" d="M201.127 600.847L495.528 600.847" stroke="#000000" stroke-width="0.3985" fill="none" /><path id="203" transform="matrix(1 0 0 -1 0 792)" d="M116.671 577.733L116.671 601.046" stroke="#000000" stroke-width="0.3985" fill="none" /><path id="204" transform="matrix(1 0 0 -1 0 792)" d="M200.928 577.733L200.928 601.046" stroke="#000000" stroke-width="0.3985" fill="none" /><path id="212" transform="matrix(1 0 0 -1 0 792)" d="M330.648 577.733L330.648 601.046" stroke="#000000" stroke-width="0.3985" fill="none" /><path id="224" transform="matrix(1 0 0 -1 0 792)" d="M495.329 577.733L495.329 601.046" stroke="#000000" stroke-width="0.3985" fill="none" /><path id="225" transform="matrix(1 0 0 -1 0 792)" d="M330.847 577.534L495.528 577.534" stroke="#000000" stroke-width="0.3985" fill="none" /><path id="226" transform="matrix(1 0 0 -1 0 792)" d="M116.671 554.421L116.671 577.733" stroke="#000000" stroke-width="0.3985" fill="none" /><path id="227" transform="matrix(1 0 0 -1 0 792)" d="M200.928 554.421L200.928 577.733" stroke="#000000" stroke-width="0.3985" fill="none" /><path id="228" transform="matrix(1 0 0 -1 0 792)" d="M330.648 554.421L330.648 577.733" stroke="#000000" stroke-width="0.3985" fill="none" /><path id="243" transform="matrix(1 0 0 -1 0 792)" d="M495.329 554.421L495.329 577.733" stroke="#000000" stroke-width="0.3985" fill="none" /><path id="244" transform="matrix(1 0 0 -1 0 792)" d="M116.472 554.221L495.528 554.221" stroke="#000000" stroke-width="0.3985" fill="none" /><path id="1109" transform="matrix(1 0 0 -1 0 792)" d="M221.809 240.235L419.854 240.235" stroke="#000000" stroke-width="0.4782" fill="none" /><path id="1275" transform="matrix(1 0 0 -1 0 792)" d="M225.893 155.479L268.624 155.479" stroke="#000000" stroke-width="0.4782" fill="none" /></g></g></svg>