<svg xmlns="http://www.w3.org/2000/svg" xmlns:xlink="http://www.w3.org/1999/xlink" id="body_6" preserveAspectRatio="xMinYMin meet" viewBox="0 0 816 1056"><defs><clipPath id="1"><path id="" clip-rule="evenodd" transform="matrix(1 0 0 1 0 0)" d="M0 792L0 0L0 0L612 0L612 0L612 792L612 792L0 792z" /></clipPath></defs><g transform="matrix(1.333333 0 0 1.333333 0 0)"><g clip-path="url(#1)"><path id="22" transform="matrix(1 0 0 -1 0 792)" d="M72 743.113L540 743.113" stroke="#000000" stroke-width="0.3985" fill="none" /><path id="49" transform="matrix(1 0 0 -1 0 792)" d="M142.45 670.524L469.55 670.524" stroke="#000000" stroke-width="0.9564" fill="none" /><path id="67" transform="matrix(1 0 0 -1 0 792)" d="M142.45 649.791L469.55 649.791" stroke="#000000" stroke-width="0.5978" fill="none" /><path id="483" transform="matrix(1 0 0 -1 0 792)" d="M142.45 441.362L469.55 441.362" stroke="#000000" stroke-width="0.9564" fill="none" /></g></g></svg>