<svg xmlns="http://www.w3.org/2000/svg" xmlns:xlink="http://www.w3.org/1999/xlink" id="body_8" preserveAspectRatio="xMinYMin meet" viewBox="0 0 816 1056"><defs><clipPath id="1"><path id="" clip-rule="evenodd" transform="matrix(1 0 0 1 0 0)" d="M0 792L0 0L0 0L612 0L612 0L612 792L612 792L0 792z" /></clipPath></defs><g transform="matrix(1.333333 0 0 1.333333 0 0)"><g clip-path="url(#1)"><path id="22" transform="matrix(1 0 0 -1 0 792)" d="M72 743.113L540 743.113" stroke="#000000" stroke-width="0.3985" fill="none" /><path id="149" transform="matrix(1 0 0 -1 0 792)" d="M260.046 595.816L300.326 595.816" stroke="#000000" stroke-width="0.4782" fill="none" /><path id="259" transform="matrix(1 0 0 -1 0 792)" d="M141.622 512.691L470.378 512.691" stroke="#000000" stroke-width="0.9564" fill="none" /><path id="331" transform="matrix(1 0 0 -1 0 792)" d="M141.622 477.433L470.378 477.433" stroke="#000000" stroke-width="0.9564" fill="none" /><path id="374" transform="matrix(1 0 0 -1 0 792)" d="M141.622 432.293L470.378 432.293" stroke="#000000" stroke-width="0.5978" fill="none" /><path id="452" transform="matrix(1 0 0 -1 0 792)" d="M141.622 399.275L470.378 399.275" stroke="#000000" stroke-width="0.9564" fill="none" /><path id="525" transform="matrix(1 0 0 -1 0 792)" d="M141.622 366.078L470.378 366.078" stroke="#000000" stroke-width="0.9564" fill="none" /><path id="553" transform="matrix(1 0 0 -1 0 792)" d="M141.622 330.82L470.378 330.82" stroke="#000000" stroke-width="0.9564" fill="none" /><g transform="matrix(0.3500164 0 0 0.3500164 138.423 483.3272)"><g transform="matrix(1 0 0 1 0 0)"><image x="0" y="0" xlink:href="img_10.png" width="949" height="598" /></g></g></g></g></svg>